# xmcd
#
# Track frame offsets:
#	150
#	11627
#	30662
#	45352
#	60809
#	71023
#	82186
#	92017
#	102401
#	114729
#	125147
#	135529
#	147508
#	165015
#	178580
#	191088
#	200696
#	211268
#	221967
#	236227
#	248811
#	261074
#	273834
#	286991
#	299410
#	310844
#
# Disc length: 4387 seconds
#
# Revision: 1
# Processed by: cddbd v1.5.2PL0 Copyright (c) Steve Scherf et al.
# Submitted via: audiograbber 1.83.01
#
DISCID=8b11211a
DTITLE=Various Artist - Legends of Country Music Disc 4
DYEAR=2005
DGENRE=Country
TTITLE0=On the road again - Willie Nelson
TTITLE1=Mountain Music - Alabama
TTITLE2=Take me home country roads - John Denver
TTITLE3=Good lady of Toronto - Kenny Rogers
TTITLE4=Truck drivin' son of a gun - Dave Dudley
TTITLE5=King of the road - Roger Miller
TTITLE6=Waiting for a train - Gene Martin
TTITLE7=Wrong road again - Crystal Gayle
TTITLE8=500 miles away from home - Bobby Bare
TTITLE9=There you go - Johnny Cash
TTITLE10=Six days on the road - Dave Dudley
TTITLE11=Once on the way - Loretta Lynn
TTITLE12=Too much is not enough - Bellamy Brothers
TTITLE13=Thank God for the radio - The Kendalls
TTITLE14=Listen to a country song - Lynn Anderson
TTITLE15=The Legend of Bonnie and Clyde - Merle Haggard
TTITLE16=Kansas City Star - Roger Miller
TTITLE17=Got a lot of rhythm in my soul - Patsy Cline
TTITLE18=You've never been this far before - Conway Twitty
TTITLE19=There ain't no easy run - Dave Dudley
TTITLE20=I'm already blue - The Kendalls
TTITLE21=San Antonio Rose - Gene Martin
TTITLE22=Misty Ray - Ray Stevens
TTITLE23=The roots of my raising - Merle Haggard
TTITLE24=How I got to Memphis - Bobby Bare
TTITLE25=My home's in Alabama - Alabama
EXTD=
EXTT0=
EXTT1=
EXTT2=
EXTT3=
EXTT4=
EXTT5=
EXTT6=
EXTT7=
EXTT8=
EXTT9=
EXTT10=
EXTT11=
EXTT12=
EXTT13=
EXTT14=
EXTT15=
EXTT16=
EXTT17=
EXTT18=
EXTT19=
EXTT20=
EXTT21=
EXTT22=
EXTT23=
EXTT24=
EXTT25=
PLAYORDER=
